<?xml version="1.0" encoding="utf-8"?>
<!-- Generator: Adobe Illustrator 22.1.0, SVG Export Plug-In . SVG Version: 6.00 Build 0)  -->
<svg version="1.1" id="Layer_1" xmlns="http://www.w3.org/2000/svg" xmlns:xlink="http://www.w3.org/1999/xlink" x="0px" y="0px"
	 viewBox="0 0 528.5 132.4" style="enable-background:new 0 0 528.5 132.4;" xml:space="preserve">
<style type="text/css">
	.st0{fill:#005752;}
	.st1{fill:#231F20;}
	.st2{fill:#A6A8AB;}
	.st3{fill:#404041;}
	.st4{fill:none;stroke:#231F20;stroke-width:0.5;stroke-miterlimit:10;}
	.st5{fill:none;stroke:#231F20;stroke-width:0.5;stroke-linecap:round;stroke-miterlimit:10;}
	.st6{fill:#404041;stroke:#231F20;stroke-width:0.5;stroke-miterlimit:10;}
	.st7{fill:#245866;stroke:#000000;stroke-width:0.75;stroke-miterlimit:10;}
	.st8{opacity:0.74;fill:#3B3B3B;stroke:#000000;stroke-width:0.5;stroke-miterlimit:10;}
	.st9{opacity:0.74;fill:#231F20;stroke:#000000;stroke-width:0.5;stroke-miterlimit:10;}
	.st10{fill:none;stroke:#001211;stroke-miterlimit:10;}
	.st11{fill:none;stroke:#001211;stroke-linecap:round;stroke-miterlimit:10;}
	.st12{fill:#005752;stroke:#000000;stroke-miterlimit:10;}
	.st13{fill:#245866;stroke:#000000;stroke-width:1.125;stroke-miterlimit:10;}
	.st14{opacity:0.74;fill:#231F20;stroke:#000000;stroke-width:0.75;stroke-miterlimit:10;}
	.st15{display:none;}
	.st16{display:inline;fill:#005752;}
	.st17{fill:#E6E7E8;}
	.st18{fill:#245866;stroke:#000000;stroke-width:2;stroke-miterlimit:10;}
	.st19{opacity:0.74;fill:#231F20;stroke:#000000;stroke-miterlimit:10;}
	.st20{fill:#E6E7E8;stroke:#000000;stroke-width:4;stroke-miterlimit:10;}
</style>
<g class="st15">
	<rect y="0" class="st16" width="528.5" height="132.4"/>
</g>
<g>
	<g>
		<polygon points="25,90.3 25,39.6 68.7,14.3 112.5,39.6 112.5,90.3 68.7,115.6 		"/>
		<path class="st0" d="M68.7,14.5l43.6,25.2v50.5l-43.6,25.2L25.2,90.2V39.7L68.7,14.5 M68.7,14.1L24.8,39.5v50.9l43.9,25.4
			l43.9-25.4V39.5L68.7,14.1L68.7,14.1z"/>
	</g>
	<g>
		<polygon class="st17" points="31.4,86.6 31.4,43.3 68.9,21.7 106.4,43.3 106.4,86.6 68.9,108.3 		"/>
		<path class="st1" d="M68.9,21.9l37.3,21.5v43.1l-37.3,21.5L31.6,86.5V43.4L68.9,21.9 M68.9,21.5L31.2,43.2v43.5l37.7,21.8
			l37.7-21.8V43.2L68.9,21.5L68.9,21.5z"/>
	</g>
</g>
<g>
	<g>
		<path class="st1" d="M34.2,63.1c4-5.6,9.7-9.6,15.7-12.1c6.1-2.5,12.6-3.4,19-3.1c6.4,0.3,12.7,2,18.2,5c5.5,3,10.4,7.3,13.4,12.8
			c-3.4-5.2-8.5-9-14-11.5c-5.6-2.4-11.7-3.5-17.6-3.3c-6,0.2-11.9,1.6-17.1,4.2c-5.2,2.6-9.7,6.5-12.5,11.2L34.2,63.1z"/>
	</g>
	<g>
		<path class="st1" d="M101.4,75.9c-5.3,2.7-10.8,4.8-16.5,6.1c-5.7,1.4-11.6,1.9-17.4,1.8c-5.8-0.2-11.6-1.2-17-3.1
			C45,78.8,40,76.2,35.1,73.3c5.1,2.5,10.4,4.6,15.8,6c5.4,1.4,11,1.9,16.5,1.6c5.5-0.4,11-1.4,16.2-3.1c5.2-1.7,10.2-4.1,14.8-7
			L101.4,75.9z"/>
	</g>
	<ellipse class="st18" cx="67.5" cy="65.7" rx="14.5" ry="8.8"/>
	<ellipse class="st19" cx="68.5" cy="66.7" rx="5.5" ry="4.1"/>
</g>
<g>
	<path class="st20" d="M167.9,101.2c-4.5,0-7.1-0.1-7.7-0.2c-0.6-0.1-1-0.6-1.3-1.4c-2.2-7.3-4.4-14.6-6.7-22
		c-3.5-11.8-5-18.5-4.7-20c0.6-2.6,1.5-6.4,2.8-11.6c1.3-5.1,2.3-9,2.8-11.6c0.3-1.2,0.7-1.8,1.4-1.8c2,0,5.1,0.1,9.1,0.3
		c4.1,0.2,7.1,0.3,9.2,0.3c0.8,0,1.2,0.3,1,1c-0.6,2.6-1.7,6.6-3.2,11.9c-1.6,5.3-2.6,9.2-3.2,11.9c-0.4,2,1.4,9.2,5.5,21.6
		c2.6-3.2,5.5-7.2,8.9-11.8c4.6-6.3,7-10.2,7.3-11.6c0.5-2.4,1.3-5.9,2.3-10.7c1-4.8,1.7-8.3,2.3-10.7c0.2-0.9,0.5-1.4,0.8-1.5
		l1.6,0c1.9,0,4.7-0.1,8.5-0.3c3.8-0.2,6.6-0.3,8.5-0.3c1,0,1.4,0.4,1.3,1.2c-0.6,2.5-1.4,6.3-2.6,11.3c-1.2,5.1-2.1,8.8-2.6,11.4
		c-0.4,2-5.4,9.4-14.9,22.2c-3.6,4.6-9,11.6-16,20.8c-0.5,0.7-0.8,1.1-0.9,1.2c-0.1,0.1-0.6,0.2-1.3,0.2
		C174.1,101.1,171.5,101.2,167.9,101.2z"/>
	<path class="st20" d="M243,65.1c-0.8,3.8-2,9.6-3.5,17.3c-1.5,7.7-2.7,13.5-3.5,17.3c-0.1,0.7-0.4,1.1-0.7,1.2
		c-0.1,0-0.5,0.1-1.4,0.2c-2.2,0.3-5.2,0.4-8.9,0.4c-4.9,0-8-0.1-9.3-0.4c-0.9-0.2-1.3-0.7-1.1-1.5c-0.1,0.5,0.7-2.3,2.4-8.6
		c3.5-13.2,5.7-21.8,6.6-25.9c0.8-3.5,1.8-8.7,3.1-15.6c1.3-7,2.3-12.2,3.1-15.6c0.2-0.7,0.6-1.1,1.4-1.1c1,0,2.6,0.1,4.7,0.1
		c2.1,0.1,3.6,0.2,4.7,0.2c1,0,2.6,0,4.6-0.1c2.1-0.1,3.6-0.1,4.6-0.1c1,0,1.4,0.4,1.2,1.1c-0.8,3.5-2.1,8.7-4,15.6
		C245.1,56.4,243.8,61.6,243,65.1z"/>
	<path class="st20" d="M292.4,78.7C291,85.3,286.8,91,280,95.7c-6,4.2-12.7,6.8-20.2,7.9c-0.3,0-0.5,0-0.7,0c-0.8,0-2-2.3-3.6-6.9
		c-1.6-4.6-2.4-7.4-2.1-8.4c0.1-0.4,0.4-0.6,0.9-0.7c5.1-1.1,8.5-2,10.3-2.7c3.9-1.7,6.2-4.2,6.9-7.5c0.5-2.1-0.2-4.5-1.9-7.1
		c-3-4.4-4.6-6.9-4.8-7.4c-1.6-3.4-1.9-7.1-1-11.2c1.3-5.9,5.2-10.9,11.8-14.8c5.4-3.2,11.5-5.3,18.5-6.3c0.4,0,0.7,0,0.9,0
		c0.5,0,0.8,0.4,1,1.2c0.4,2.4,1.4,6.7,3.3,12.9c0.1,0.2,0.1,0.4,0,0.5c-0.1,0.6-0.5,0.8-1.1,0.8c-0.3,0-0.7,0-1.3-0.1
		c-0.6-0.1-1.1-0.2-1.4-0.2c-2.4,0-4.7,0.5-6.7,1.6c-2.5,1.2-3.9,2.9-4.4,5.2c-0.4,2,0.2,4.4,2,7.3c3.1,5.2,4.7,7.9,4.9,8.2
		C292.8,71.6,293.2,75.2,292.4,78.7z"/>
	<path class="st20" d="M332,65.2c-0.8,3.8-2,9.6-3.5,17.3c-1.5,7.7-2.7,13.5-3.5,17.3c-0.1,0.7-0.4,1.1-0.7,1.2
		c-0.1,0-0.5,0.1-1.4,0.2c-2.2,0.3-5.2,0.4-8.9,0.4c-4.9,0-8-0.1-9.3-0.4c-0.9-0.2-1.3-0.7-1.1-1.5c-0.1,0.5,0.7-2.3,2.4-8.6
		c3.5-13.2,5.7-21.8,6.6-25.9c0.8-3.5,1.8-8.7,3.1-15.6c1.3-7,2.3-12.2,3.1-15.6c0.2-0.7,0.6-1.1,1.4-1.1c1,0,2.6,0.1,4.7,0.2
		c2.1,0.1,3.6,0.2,4.7,0.2c1,0,2.6,0,4.6-0.1c2.1-0.1,3.6-0.1,4.6-0.1c1,0,1.4,0.4,1.2,1.1c-0.8,3.5-2.1,8.7-4,15.6
		C334.1,56.5,332.8,61.7,332,65.2z"/>
	<path class="st20" d="M419.7,67.2c-2.2,10.1-7.5,18.6-15.7,25.5c-8.4,6.9-17.8,10.4-28.2,10.4c-10.4,0-18.2-3.5-23.5-10.6
		c-5.2-6.9-6.7-15.3-4.5-25.4c2.2-10.1,7.5-18.6,15.7-25.5c8.4-7,17.8-10.6,28.2-10.5c10.3,0,18.1,3.6,23.5,10.6
		C420.4,48.7,421.9,57.2,419.7,67.2z M400.6,67.1c1.1-4.9,0.5-9-1.8-12.4c-2.4-3.6-6.1-5.4-11.1-5.4c-4.7,0-9.2,1.8-13.3,5.5
		c-4,3.6-6.5,7.7-7.5,12.3c-1.1,5-0.5,9.1,1.7,12.4c2.4,3.5,6.1,5.2,11.2,5.2c4.7,0,9.2-1.8,13.3-5.5
		C397.1,75.8,399.6,71.7,400.6,67.1z"/>
	<path class="st20" d="M509.6,34.6c-0.8,3.7-2.2,9.3-4.2,16.7c-2,7.4-3.4,13-4.2,16.7l-7.1,32.1c-0.2,0.9-0.8,1.3-1.8,1.3
		c-0.8,0-2,0-3.7,0.1c-1.6,0.1-2.9,0.1-3.7,0.1c-0.9,0-2.2-0.1-3.9-0.2c-1.7-0.1-3-0.2-3.9-0.2c-0.6,0-1.2-0.5-1.8-1.6
		c-1.7-3.2-5.6-10.1-11.7-21c-1.6-3-4.2-7.5-7.6-13.4c-0.1-0.2-0.3-0.4-0.6-0.6c-0.3,0.2-0.5,0.6-0.6,1.1c-0.8,3.8-2,9.4-3.4,17
		s-2.6,13.2-3.4,17c-0.3,1.1-0.8,1.7-1.7,1.7l-17.4,0c-1,0-1.4-0.5-1.1-1.5c0.8-3.5,2.1-8.8,4.1-15.9c1.9-7.1,3.3-12.4,4.1-15.9
		c0.8-3.7,1.9-9.3,3.2-16.8c1.3-7.4,2.4-13,3.2-16.7c0.2-0.7,0.9-1.1,2.2-1.1c2,0,4.4-0.1,7.3-0.4c0.7-0.1,2.1-0.3,4.1-0.6
		c1.7-0.3,3.1-0.4,4.1-0.4c0.4,0,0.9,0.6,1.5,1.7l13.3,24.9c1.2,2.2,3,5.5,5.4,9.8c0.6,1,1.2,1.5,1.8,1.5c0.4,0,0.9-1.3,1.5-3.8
		c0.8-3.4,1.7-8.5,2.8-15.4c1.1-6.9,2.1-12,2.8-15.4c0.3-1.2,0.8-1.8,1.5-1.8c2,0,5.1-0.1,9.2-0.2c4.1-0.2,7.2-0.2,9.2-0.2
		C509.7,33,509.9,33.6,509.6,34.6z"/>
</g>
</svg>
