<svg id="Layer_1" data-name="Layer 1" xmlns="http://www.w3.org/2000/svg" viewBox="0 0 240 278"><defs><style>.cls-1,.cls-8{fill:#005752;}.cls-2,.cls-5{fill:#231f20;}.cls-3{fill:#a6a8ab;}.cls-4{fill:#245866;stroke-width:0.75px;}.cls-4,.cls-5,.cls-8{stroke:#000;}.cls-4,.cls-5,.cls-6,.cls-7,.cls-8{stroke-miterlimit:10;}.cls-5,.cls-6,.cls-7{stroke-width:0.5px;}.cls-5{opacity:0.74;}.cls-6,.cls-7{fill:none;stroke:#231f20;}.cls-7{stroke-linecap:round;}</style></defs><title>logo</title><polygon class="cls-1" points="0.5 208.21 0.5 69.79 120 0.58 239.5 69.79 239.5 208.21 120 277.42 0.5 208.21"/><path class="cls-2" d="M120,1.16,239,70.08V207.92L120,276.84,1,207.92V70.08L120,1.16M120,0,0,69.5v139L120,278l120-69.5V69.5L120,0Z"/><polygon class="cls-3" points="12.54 201.26 12.54 76.74 120.38 14.48 228.22 76.74 228.22 201.26 120.38 263.52 12.54 201.26"/><path class="cls-2" d="M120.38,15.05,227.72,77V201L120.38,263,13,201V77l107.34-62m0-1.15L12,76.45v125.1L120.38,264.1l108.34-62.55V76.45L120.38,13.9Z"/><path class="cls-4" d="M96.17,99c1.7-7.2,12.18-9.58,15.5-10.33a29.31,29.31,0,0,1,13.84.17c8.29,2.23,13,8.32,12,14.16-.86,5-4.23,8.1-10.5,9.67-6.46,1.62-19.78,5-27-2.5C99.79,110,94.83,104.69,96.17,99Z"/><path class="cls-5" d="M108,102.13c-.32-3.6,3.26-6,5.67-6.66.2-.06,4.89-1.35,7,1.5,1.88,2.53,0,6.08-.17,6.5s-2.26,4.23-6.16,4.16C111.31,107.59,108.27,105.25,108,102.13Z"/><path class="cls-6" d="M59.06,198.12H58a9.6,9.6,0,0,1-6.69-2.72l-2.53-2.47a7.46,7.46,0,0,0-5.17-2.1H42"/><path class="cls-6" d="M59.06,190.83h-.48A11.12,11.12,0,0,0,50.81,194l-1,1a11,11,0,0,1-7.66,3.11H42"/><line class="cls-7" x1="43.42" y1="198.04" x2="43.42" y2="190.83"/><line class="cls-7" x1="53.71" y1="197.04" x2="53.71" y2="192.06"/><line class="cls-7" x1="46.38" y1="197.25" x2="46.38" y2="191.57"/><line class="cls-6" x1="57.06" y1="198.12" x2="57.06" y2="190.93"/><path class="cls-6" d="M76.13,198.12H75a9.6,9.6,0,0,1-6.69-2.72l-2.53-2.47a7.46,7.46,0,0,0-5.17-2.1H59.06"/><path class="cls-6" d="M76.13,190.83h-.48A11.12,11.12,0,0,0,67.88,194l-1,1a11,11,0,0,1-7.65,3.11h-.12"/><line class="cls-7" x1="60.48" y1="198.04" x2="60.48" y2="190.83"/><line class="cls-7" x1="70.78" y1="197.04" x2="70.78" y2="192.06"/><line class="cls-7" x1="63.45" y1="197.25" x2="63.45" y2="191.57"/><line class="cls-6" x1="74.13" y1="198.12" x2="74.13" y2="190.93"/><path class="cls-6" d="M93.2,198.12H92.09a9.6,9.6,0,0,1-6.69-2.72l-2.54-2.47a7.41,7.41,0,0,0-5.16-2.1H76.13"/><path class="cls-6" d="M93.2,190.83h-.48A11.11,11.11,0,0,0,85,194l-1,1a11,11,0,0,1-7.65,3.11h-.12"/><line class="cls-7" x1="77.55" y1="198.04" x2="77.55" y2="190.83"/><line class="cls-7" x1="87.85" y1="197.04" x2="87.85" y2="192.06"/><line class="cls-7" x1="80.52" y1="197.25" x2="80.52" y2="191.57"/><line class="cls-6" x1="91.2" y1="198.12" x2="91.2" y2="190.93"/><path class="cls-6" d="M110.26,198.12h-1.1a9.6,9.6,0,0,1-6.69-2.72l-2.54-2.47a7.41,7.41,0,0,0-5.16-2.1H93.2"/><path class="cls-6" d="M110.26,190.83h-.48A11.1,11.1,0,0,0,102,194l-1,1a11,11,0,0,1-7.65,3.11H93.2"/><line class="cls-7" x1="94.62" y1="198.04" x2="94.62" y2="190.83"/><line class="cls-7" x1="104.92" y1="197.04" x2="104.92" y2="192.06"/><line class="cls-7" x1="97.59" y1="197.25" x2="97.59" y2="191.57"/><line class="cls-6" x1="108.27" y1="198.12" x2="108.27" y2="190.93"/><path class="cls-6" d="M127.33,198.12h-1.1a9.6,9.6,0,0,1-6.69-2.72L117,192.93a7.41,7.41,0,0,0-5.16-2.1h-1.58"/><path class="cls-6" d="M127.33,190.83h-.48a11.1,11.1,0,0,0-7.76,3.16l-1,1a11,11,0,0,1-7.65,3.11h-.13"/><line class="cls-7" x1="111.69" y1="198.04" x2="111.69" y2="190.83"/><line class="cls-7" x1="121.99" y1="197.04" x2="121.99" y2="192.06"/><line class="cls-7" x1="114.66" y1="197.25" x2="114.66" y2="191.57"/><line class="cls-6" x1="125.34" y1="198.12" x2="125.34" y2="190.93"/><path class="cls-6" d="M144.47,198.12h-1.1a9.6,9.6,0,0,1-6.69-2.72l-2.54-2.47a7.41,7.41,0,0,0-5.16-2.1h-1.57"/><path class="cls-6" d="M144.47,190.83H144a11.1,11.1,0,0,0-7.76,3.16l-1,1a11,11,0,0,1-7.65,3.11h-.12"/><line class="cls-7" x1="128.83" y1="198.04" x2="128.83" y2="190.83"/><line class="cls-7" x1="139.13" y1="197.04" x2="139.13" y2="192.06"/><line class="cls-7" x1="131.8" y1="197.25" x2="131.8" y2="191.57"/><line class="cls-6" x1="142.48" y1="198.12" x2="142.48" y2="190.93"/><path class="cls-6" d="M161.54,198.12h-1.1a9.6,9.6,0,0,1-6.69-2.72l-2.54-2.47a7.41,7.41,0,0,0-5.16-2.1h-1.58"/><path class="cls-6" d="M161.54,190.83h-.48A11.1,11.1,0,0,0,153.3,194l-1.05,1a11,11,0,0,1-7.65,3.11h-.13"/><line class="cls-7" x1="145.9" y1="198.04" x2="145.9" y2="190.83"/><line class="cls-7" x1="156.2" y1="197.04" x2="156.2" y2="192.06"/><line class="cls-7" x1="148.87" y1="197.25" x2="148.87" y2="191.57"/><line class="cls-6" x1="159.55" y1="198.12" x2="159.55" y2="190.93"/><path class="cls-6" d="M178.61,198.12h-1.1a9.6,9.6,0,0,1-6.69-2.72l-2.54-2.47a7.41,7.41,0,0,0-5.16-2.1h-1.58"/><path class="cls-6" d="M178.61,190.83h-.48a11.1,11.1,0,0,0-7.76,3.16l-1.05,1a11,11,0,0,1-7.65,3.11h-.13"/><line class="cls-7" x1="162.97" y1="198.04" x2="162.97" y2="190.83"/><line class="cls-7" x1="173.27" y1="197.04" x2="173.27" y2="192.06"/><line class="cls-7" x1="165.94" y1="197.25" x2="165.94" y2="191.57"/><line class="cls-6" x1="176.61" y1="198.12" x2="176.61" y2="190.93"/><path class="cls-6" d="M195.68,198.12h-1.11a9.64,9.64,0,0,1-6.69-2.72l-2.53-2.47a7.41,7.41,0,0,0-5.16-2.1h-1.58"/><path class="cls-6" d="M195.68,190.83h-.48a11.08,11.08,0,0,0-7.76,3.16l-1.05,1a11,11,0,0,1-7.66,3.11h-.12"/><line class="cls-7" x1="180.04" y1="198.04" x2="180.04" y2="190.83"/><line class="cls-7" x1="190.33" y1="197.04" x2="190.33" y2="192.06"/><line class="cls-7" x1="183" y1="197.25" x2="183" y2="191.57"/><line class="cls-6" x1="193.68" y1="198.12" x2="193.68" y2="190.93"/><path class="cls-8" d="M50.53,184.68c-2,0-3.09,0-3.35-.09a.81.81,0,0,1-.57-.62q-1.44-4.77-2.9-9.56-2.26-7.69-2-8.71c.25-1.11.66-2.79,1.23-5s1-3.92,1.24-5c.12-.53.32-.79.61-.79.88,0,2.2,0,4,.11s3.09.11,4,.11q.55,0,.45.45c-.25,1.14-.72,2.86-1.39,5.16s-1.14,4-1.4,5.15q-.28,1.32,2.37,9.39,1.68-2.1,3.88-5.14,3-4.11,3.18-5c.23-1,.56-2.58,1-4.65s.76-3.62,1-4.65c.08-.38.2-.59.34-.63h.7c.8,0,2,0,3.67-.11s2.87-.12,3.68-.12c.44,0,.62.17.54.52q-.36,1.62-1.14,4.92c-.52,2.19-.91,3.84-1.15,4.94q-.3,1.32-6.46,9.65-2.37,3-6.94,9.06a2.31,2.31,0,0,1-.41.52,1.78,1.78,0,0,1-.58.1C53.26,184.65,52.1,184.68,50.53,184.68Z"/><path class="cls-8" d="M83.2,169c-.37,1.67-.88,4.17-1.54,7.52s-1.16,5.85-1.53,7.51a.71.71,0,0,1-.31.53,3.5,3.5,0,0,1-.59.09,33.64,33.64,0,0,1-3.85.16,28.31,28.31,0,0,1-4-.17c-.41-.09-.57-.31-.49-.66,0,.23.29-1,1-3.73q2.3-8.58,2.89-11.26c.34-1.51.78-3.78,1.35-6.8s1-5.29,1.36-6.8a.53.53,0,0,1,.6-.46q.68,0,2,.06c.9,0,1.58.07,2,.07s1.13,0,2-.06,1.57-.06,2-.06.6.15.53.46q-.49,2.26-1.76,6.8C84.12,165.2,83.53,167.47,83.2,169Z"/><path class="cls-8" d="M104.67,174.92a12.2,12.2,0,0,1-5.38,7.36,20.36,20.36,0,0,1-8.76,3.44,1.68,1.68,0,0,1-.29,0c-.34,0-.86-1-1.58-3a10.73,10.73,0,0,1-.93-3.64c0-.15.17-.25.4-.29a28.1,28.1,0,0,0,4.47-1.19,4.66,4.66,0,0,0,3-3.25,4.08,4.08,0,0,0-.81-3.08c-1.3-1.92-2-3-2.1-3.2a7.49,7.49,0,0,1-.43-4.87c.57-2.58,2.28-4.73,5.13-6.43a20.89,20.89,0,0,1,8-2.75l.37,0q.33,0,.42.51a49.49,49.49,0,0,0,1.41,5.6.4.4,0,0,1,0,.21.43.43,0,0,1-.48.36,3.37,3.37,0,0,1-.57-.07,4.62,4.62,0,0,0-.62-.06,6.28,6.28,0,0,0-2.92.69,3.31,3.31,0,0,0-1.92,2.25,4.48,4.48,0,0,0,.87,3.18c1.36,2.26,2.07,3.44,2.13,3.56A7.3,7.3,0,0,1,104.67,174.92Z"/><path class="cls-8" d="M121.88,169c-.37,1.67-.88,4.17-1.54,7.52s-1.16,5.85-1.53,7.52c-.06.28-.17.46-.32.52a3.07,3.07,0,0,1-.58.09,33.64,33.64,0,0,1-3.85.16,28.31,28.31,0,0,1-4-.17c-.41-.09-.57-.3-.49-.66,0,.23.29-1,1-3.73q2.3-8.57,2.89-11.26c.34-1.51.78-3.78,1.35-6.8s1-5.29,1.35-6.8a.56.56,0,0,1,.61-.46q.68,0,2,.06c.9,0,1.58.07,2,.07s1.13,0,2-.06,1.57-.06,2-.06.6.15.53.46c-.33,1.52-.92,3.78-1.76,6.8S122.21,167.52,121.88,169Z"/><path class="cls-8" d="M160,169.91A19.65,19.65,0,0,1,153.15,181a18.66,18.66,0,0,1-12.27,4.51q-6.76,0-10.22-4.59t-1.94-11a19.62,19.62,0,0,1,6.83-11.08,18.63,18.63,0,0,1,12.26-4.58q6.74,0,10.21,4.61T160,169.91Zm-8.3-.06a6.69,6.69,0,0,0-.8-5.4,5.38,5.38,0,0,0-4.81-2.34,8.48,8.48,0,0,0-5.77,2.41,10.07,10.07,0,0,0-3.27,5.36,6.71,6.71,0,0,0,.76,5.4,5.49,5.49,0,0,0,4.86,2.27,8.56,8.56,0,0,0,5.79-2.38A10,10,0,0,0,151.67,169.85Z"/><path class="cls-8" d="M199.07,155.72c-.36,1.61-1,4-1.82,7.25s-1.46,5.65-1.82,7.28l-3.09,14a.69.69,0,0,1-.76.57c-.35,0-.88,0-1.6,0l-1.6,0c-.38,0-.94,0-1.69-.09s-1.31-.09-1.69-.09-.52-.23-.78-.7q-1.12-2.05-5.09-9.11c-.71-1.32-1.82-3.25-3.31-5.81a.65.65,0,0,0-.28-.26.76.76,0,0,0-.27.47c-.37,1.64-.86,4.09-1.49,7.37s-1.13,5.73-1.49,7.37c-.11.49-.37.74-.76.74H164c-.43,0-.59-.22-.49-.66q.49-2.28,1.76-6.9t1.76-6.93q.54-2.43,1.41-7.28t1.4-7.27c.07-.31.39-.46,1-.46.84,0,1.9-.05,3.17-.17.29,0,.89-.12,1.79-.27a11.13,11.13,0,0,1,1.77-.19c.18,0,.39.24.65.72l5.78,10.84q.76,1.46,2.36,4.28c.27.44.53.65.8.65s.4-.54.65-1.65q.5-2.22,1.23-6.69t1.23-6.71c.12-.52.33-.79.64-.79.87,0,2.2,0,4-.1s3.11-.1,4-.1C199.07,155.06,199.16,155.28,199.07,155.72Z"/><path class="cls-2" d="M62,102.05a51.28,51.28,0,0,1,11.94-11,66.56,66.56,0,0,1,14.26-7.15,83.87,83.87,0,0,1,31.05-4.81,81.65,81.65,0,0,1,30.45,6.68,63.68,63.68,0,0,1,13.42,7.9A46.76,46.76,0,0,1,173.63,105a45.83,45.83,0,0,0-10.94-10.81A62.05,62.05,0,0,0,149.17,87a82.68,82.68,0,0,0-59.67.48C80.23,91.24,71.66,97.09,66,105Z"/><path class="cls-2" d="M173.36,112.18a129.55,129.55,0,0,1-27.62,9.66,128.48,128.48,0,0,1-29,3.21,115.57,115.57,0,0,1-14.53-1A114.44,114.44,0,0,1,88,121a147.77,147.77,0,0,1-26.9-10.64,146.83,146.83,0,0,0,27.15,9.67,111.79,111.79,0,0,0,14.16,2.45,114.28,114.28,0,0,0,14.32.54A126.56,126.56,0,0,0,145,118.93a126.14,126.14,0,0,0,26.53-10.32Z"/></svg>